# xmcd
#
# Track frame offsets:
#	187
#	8320
#	15120
#	31227
#	55747
#	62252
#	81317
#	91507
#	100362
#	113982
#	122937
#	135815
#	156127
#	176400
#	187720
#	201432
#	213657
#	223190
#	235480
#	247832
#	260087
#	269640
#	281897
#	291935
#	299615
#
# Disc length: 4027 seconds
#
# Revision: 1
# Processed by: cddbd v1.5.1PL0 Copyright (c) Steve Scherf et al.
# Submitted via: CDex 1.50Beta5
#
DISCID=660fb919
DTITLE=古屋恵子 - ヴォーカリスト養成アイテム（入門編）
DYEAR=1900
DGENRE=Books
TTITLE0=呼吸を整える
TTITLE1=まずは腹式呼吸の自覚をしよう
TTITLE2=ラクラク腹式呼吸
TTITLE3=歌うためののどをつくる
TTITLE4=暗くこもった声から明るい声質へ
TTITLE5=鼻に響かせるハミングトレーニング
TTITLE6=横隔膜のトレーニング
TTITLE7=腹筋のトレーニング
TTITLE8=ロングトーントレーニング
TTITLE9=呼吸だけのブレストレーニング
TTITLE10=声を使ったブレストレーニング
TTITLE11=低音域のトレーニング
TTITLE12=地声での高音域のトレーニング
TTITLE13=裏声での高音域のトレーニング
TTITLE14=Scale 1（メジャー系）
TTITLE15=Scale 2（メジャー系）
TTITLE16=Scale 3（メジャー系）
TTITLE17=Scale 4（メジャー系）
TTITLE18=Scale 1（マイナー系）
TTITLE19=Scale 2（マイナー系）
TTITLE20=Scale 3（マイナー系）
TTITLE21=Scale 4（マイナー系）
TTITLE22=体を使ってリズムを感じよう
TTITLE23=いろいろなビートでノる
TTITLE24=終わりに
EXTD=
EXTT0=
EXTT1=
EXTT2=
EXTT3=
EXTT4=
EXTT5=
EXTT6=
EXTT7=
EXTT8=
EXTT9=
EXTT10=
EXTT11=
EXTT12=
EXTT13=
EXTT14=
EXTT15=
EXTT16=
EXTT17=
EXTT18=
EXTT19=
EXTT20=
EXTT21=
EXTT22=
EXTT23=
EXTT24=
PLAYORDER=
